<?xml version="1.0" standalone="no"?>
<!DOCTYPE svg PUBLIC "-//W3C//DTD SVG 20010904//EN"
 "http://www.w3.org/TR/2001/REC-SVG-20010904/DTD/svg10.dtd">
<svg version="1.0" xmlns="http://www.w3.org/2000/svg"
 width="383.000000pt" height="472.000000pt" viewBox="0 0 383.000000 472.000000"
 preserveAspectRatio="xMidYMid meet">

<g transform="translate(0.000000,472.000000) scale(0.100000,-0.100000)"
fill="#000000" stroke="none">
<path d="M169 4678 c0 -13 -1 -38 -2 -56 -1 -19 1 -36 5 -39 5 -2 8 23 8 56 0
34 -2 61 -5 61 -3 0 -5 -10 -6 -22z"/>
<path d="M799 4678 c0 -13 -1 -38 -2 -56 -1 -19 1 -36 5 -39 5 -2 8 23 8 56 0
34 -2 61 -5 61 -3 0 -5 -10 -6 -22z"/>
<path d="M3469 4678 c0 -13 -1 -38 -2 -56 -1 -19 1 -36 5 -39 5 -2 8 23 8 56
0 34 -2 61 -5 61 -3 0 -5 -10 -6 -22z"/>
<path d="M47 4684 c-11 -11 -8 -26 3 -19 6 3 10 1 10 -6 0 -7 3 -10 6 -6 3 3
2 13 -3 22 -5 8 -12 12 -16 9z"/>
<path d="M569 4668 c-2 -29 3 -74 10 -81 4 -4 6 7 3 24 -3 17 0 34 6 38 6 4 5
11 -4 19 -11 10 -14 10 -15 0z"/>
<path d="M3211 4663 c-1 -13 7 -24 18 -28 11 -3 22 -16 24 -28 4 -22 4 -22 6
1 0 12 -6 25 -15 29 -9 3 -20 15 -24 27 l-9 21 0 -22z"/>
<path d="M122 4648 c-22 -22 -7 -69 22 -68 6 0 3 5 -6 11 -10 5 -18 19 -18 29
0 10 8 24 18 29 9 6 12 11 7 11 -6 0 -16 -5 -23 -12z"/>
<path d="M200 4621 c0 -23 2 -41 4 -41 8 0 12 71 4 76 -4 3 -8 -13 -8 -35z"/>
<path d="M237 4653 c6 -4 13 -24 16 -43 4 -34 4 -33 3 4 -1 26 -6 41 -16 43
-10 3 -11 2 -3 -4z"/>
<path d="M287 4653 c6 -4 13 -24 16 -43 4 -34 4 -33 3 4 -1 26 -6 41 -16 43
-10 3 -11 2 -3 -4z"/>
<path d="M343 4620 c0 -25 2 -35 4 -22 2 12 2 32 0 45 -2 12 -4 2 -4 -23z"/>
<path d="M417 4650 c6 -8 13 -28 16 -45 l4 -30 2 31 c0 20 -6 37 -16 45 -16
12 -16 12 -6 -1z"/>
<path d="M463 4620 c0 -25 2 -35 4 -22 2 12 2 32 0 45 -2 12 -4 2 -4 -23z"/>
<path d="M507 4653 c-11 -10 -8 -33 4 -33 5 0 7 5 3 11 -3 6 0 15 7 20 8 5 9
9 3 9 -6 0 -14 -3 -17 -7z"/>
<path d="M633 4653 c-8 -3 -12 -20 -12 -41 2 -34 2 -35 6 -7 3 17 9 36 15 43
11 13 10 13 -9 5z"/>
<path d="M696 4645 c14 -11 15 -14 4 -15 -12 0 -13 -2 -1 -9 7 -5 11 -13 7
-19 -3 -6 -2 -13 4 -17 14 -9 13 48 -2 63 -7 7 -16 12 -22 12 -5 0 -1 -7 10
-15z"/>
<path d="M873 4650 c9 -6 17 -20 17 -30 0 -10 -8 -24 -17 -30 -11 -7 -12 -10
-4 -7 8 2 19 11 25 20 12 19 -1 48 -25 54 -8 3 -7 0 4 -7z"/>
<path d="M943 4653 c-8 -3 -12 -20 -12 -41 2 -34 2 -35 6 -7 3 17 9 36 15 43
11 13 10 13 -9 5z"/>
<path d="M3293 4620 c0 -25 2 -35 4 -22 2 12 2 32 0 45 -2 12 -4 2 -4 -23z"/>
<path d="M3367 4650 c6 -8 13 -28 16 -45 l4 -30 2 31 c0 20 -6 37 -16 45 -16
12 -16 12 -6 -1z"/>
<path d="M3422 4648 c-22 -22 -7 -69 23 -68 5 0 2 5 -7 11 -10 5 -18 19 -18
29 0 10 8 24 18 29 9 6 12 11 7 11 -6 0 -16 -5 -23 -12z"/>
<path d="M3513 4620 c0 -25 2 -35 4 -22 2 12 2 32 0 45 -2 12 -4 2 -4 -23z"/>
<path d="M3622 4648 c-22 -22 -7 -69 23 -68 5 0 2 5 -7 11 -10 5 -18 19 -18
29 0 10 8 24 18 29 9 6 12 11 7 11 -6 0 -16 -5 -23 -12z"/>
<path d="M23 4615 c-10 -33 -10 -37 1 -22 15 19 56 23 56 5 0 -6 2 -9 5 -6 3
3 1 16 -4 29 -5 13 -10 18 -10 12 -1 -20 -29 -15 -33 4 -2 11 -8 1 -15 -22z"/>
<path d="M383 4615 c0 -22 2 -30 4 -17 2 12 2 30 0 40 -3 9 -5 -1 -4 -23z"/>
<path d="M746 4635 c-9 -26 -7 -32 5 -12 6 10 9 21 6 23 -2 3 -7 -2 -11 -11z"/>
<path d="M836 4634 c-3 -9 -2 -22 2 -31 6 -10 9 -5 9 16 0 35 -2 38 -11 15z"/>
<path d="M3333 4615 c0 -22 2 -30 4 -17 2 12 2 30 0 40 -3 9 -5 -1 -4 -23z"/>
<path d="M3543 4634 c-7 -19 7 -46 28 -52 8 -2 5 2 -5 10 -13 10 -17 22 -13
37 6 25 -1 28 -10 5z"/>
<path d="M3663 4620 c0 -23 3 -28 9 -16 5 9 5 23 0 32 -6 12 -9 7 -9 -16z"/>
<path d="M531 4604 c0 -11 3 -14 6 -6 3 7 2 16 -1 19 -3 4 -6 -2 -5 -13z"/>
<path d="M666 4611 c-3 -5 2 -15 12 -22 15 -12 16 -12 5 2 -7 9 -10 19 -6 22
3 4 4 7 0 7 -3 0 -8 -4 -11 -9z"/>
<path d="M3366 4489 c-17 -13 -33 -18 -46 -14 -50 16 -130 -40 -130 -91 0 -14
-10 -30 -25 -40 -43 -28 -78 -98 -73 -147 4 -33 -1 -49 -20 -74 -36 -49 -54
-118 -42 -164 11 -38 50 -79 77 -79 10 0 13 -6 9 -17 -28 -72 -12 -146 37
-172 22 -12 33 -10 90 13 36 14 73 26 81 26 9 0 16 8 16 19 0 26 50 39 66 17
15 -21 44 -21 44 0 0 12 6 15 23 10 12 -3 25 -6 28 -6 4 0 9 -8 11 -17 4 -12
33 -27 87 -46 75 -25 83 -26 105 -12 43 28 56 98 31 167 -3 8 8 19 28 28 19 9
39 30 50 53 17 33 17 44 7 87 -7 27 -24 67 -39 87 -22 31 -26 46 -23 80 5 49
-31 121 -73 149 -14 9 -25 26 -25 39 0 45 -75 103 -122 94 -7 -2 -27 5 -45 14
-43 23 -95 22 -127 -4z m-162 -448 c9 -14 -4 -41 -19 -41 -18 0 -26 15 -19 34
7 17 29 21 38 7z m480 -7 c7 -19 -1 -34 -19 -34 -18 0 -28 32 -13 42 19 11 25
10 32 -8z m-184 -84 c0 -32 -87 -39 -121 -10 l-24 19 73 1 c40 0 72 -4 72 -10z"/>
<path d="M334 4096 c-11 -28 0 -61 21 -61 16 0 20 7 20 35 0 25 -5 36 -18 38
-9 2 -20 -3 -23 -12z"/>
<path d="M554 4086 c-8 -35 2 -58 23 -54 25 5 25 71 1 76 -12 2 -19 -5 -24
-22z"/>
<path d="M386 3751 c-10 -10 -48 -29 -86 -41 -85 -27 -128 -70 -154 -157 l-7
-23 331 0 331 0 -7 23 c-12 41 -42 92 -66 114 -22 20 -131 63 -161 63 -8 0
-20 7 -27 15 -9 10 -24 13 -54 9 -24 -4 -52 -1 -63 5 -16 8 -24 7 -37 -8z"/>
<path d="M1597 2782 c-28 -147 -20 -208 35 -268 29 -32 32 -81 18 -246 -15
-168 -14 -168 -71 -54 -51 99 -70 193 -68 336 l2 125 -26 3 c-23 3 -27 -1 -33
-33 -10 -56 2 -253 20 -320 37 -137 128 -276 234 -360 58 -47 222 -135 249
-135 8 0 53 18 99 41 77 37 84 44 84 70 0 16 -2 29 -4 29 -3 0 -43 -20 -90
-45 -83 -43 -86 -44 -120 -30 -58 25 -150 82 -194 122 l-43 38 19 188 c12 113
16 203 12 223 -5 19 -25 59 -46 89 -36 53 -37 56 -31 122 4 38 11 85 17 106
10 34 14 37 45 37 l35 0 0 -54 c0 -61 6 -66 75 -66 69 0 75 5 75 66 l0 54 65
0 65 0 0 -55 0 -55 60 0 60 0 0 80 c0 64 -3 80 -15 80 -12 0 -15 -13 -15 -60
0 -47 -3 -60 -15 -60 -12 0 -15 13 -15 60 l0 60 -125 0 -125 0 0 -61 c0 -81
-24 -77 -28 4 l-3 57 -93 0 -92 0 -17 -88z"/>
<path d="M1881 2535 l-31 -27 0 -149 0 -149 65 0 c58 0 65 2 65 20 0 16 -7 20
-35 20 l-35 0 0 119 c0 128 8 149 50 136 19 -6 21 -3 18 22 -4 40 -53 44 -97
8z"/>
<path d="M1815 1141 c-30 -13 -47 -38 -47 -66 0 -18 -9 -30 -29 -40 -60 -31
-76 -90 -35 -128 23 -22 41 -91 38 -147 -1 -15 1 -19 5 -10 3 8 21 30 40 48
30 28 32 32 14 32 -16 0 -21 6 -21 25 0 28 15 34 24 9 3 -8 11 -12 17 -8 7 4
28 7 48 8 30 1 36 4 34 21 -1 13 8 26 26 36 25 15 29 15 50 -2 13 -11 29 -19
37 -19 8 0 11 -6 8 -15 -5 -11 2 -15 27 -15 19 0 44 -3 57 -6 34 -10 28 24 -7
39 l-29 12 23 29 c22 28 23 28 34 9 21 -40 24 -98 6 -116 -9 -9 -12 -17 -6
-17 6 0 11 -9 11 -20 0 -13 7 -20 20 -20 11 0 24 -9 28 -19 4 -11 8 26 9 81 2
121 -12 163 -70 214 -68 57 -139 87 -220 91 -40 1 -81 -1 -92 -6z"/>
<path d="M1876 820 c37 -15 66 -61 60 -94 -7 -34 -32 -64 -61 -77 -18 -7 -18
-8 -2 -8 25 -1 77 52 77 78 0 36 34 26 49 -14 13 -38 52 -70 73 -62 9 4 8 6
-3 6 -23 1 -58 43 -65 77 -4 24 0 37 21 62 15 18 34 32 43 33 11 0 13 2 4 6
-17 7 -59 -22 -67 -47 -4 -14 -15 -20 -36 -20 -16 0 -29 5 -29 10 0 18 -48 60
-67 59 -15 0 -15 -2 3 -9z"/>
<path d="M1835 781 c-12 -38 22 -73 45 -46 18 21 4 65 -20 65 -10 0 -21 -8
-25 -19z"/>
<path d="M2055 781 c-13 -41 26 -76 45 -40 6 11 8 29 5 39 -8 25 -42 26 -50 1z"/>
<path d="M1740 717 c0 -24 53 -77 77 -77 11 1 6 6 -15 15 -20 9 -38 27 -47 47
-9 21 -14 26 -15 15z"/>
<path d="M2191 714 c0 -11 3 -14 6 -6 3 7 2 16 -1 19 -3 4 -6 -2 -5 -13z"/>
<path d="M2174 679 c-3 -6 -20 -17 -38 -25 -17 -7 -23 -13 -14 -14 16 0 81 49
66 50 -4 0 -10 -5 -14 -11z"/>
<path d="M1980 624 l-35 -13 32 0 c17 -1 35 4 38 10 10 16 3 16 -35 3z"/>
<path d="M2079 138 c0 -13 -1 -38 -2 -56 -1 -19 1 -36 5 -39 5 -2 8 23 8 56 0
34 -2 61 -5 61 -3 0 -5 -10 -6 -22z"/>
<path d="M1690 141 c0 -5 5 -13 10 -16 6 -3 10 -2 10 4 0 5 -4 13 -10 16 -5 3
-10 2 -10 -4z"/>
<path d="M1767 143 c-2 -5 -1 -19 4 -33 7 -23 7 -23 8 8 1 31 -3 40 -12 25z"/>
<path d="M1822 108 c-22 -22 -7 -69 23 -68 5 0 2 5 -7 11 -10 5 -18 19 -18 29
0 10 8 24 18 29 9 6 12 11 7 11 -6 0 -16 -5 -23 -12z"/>
<path d="M1913 113 c-8 -3 -12 -20 -12 -41 2 -34 2 -35 6 -7 3 17 9 36 15 43
11 13 10 13 -9 5z"/>
<path d="M1976 105 c14 -11 15 -14 4 -15 -12 0 -13 -2 -1 -9 7 -5 11 -13 7
-19 -3 -6 -2 -13 4 -17 14 -9 13 48 -2 63 -7 7 -16 12 -22 12 -5 0 -1 -7 10
-15z"/>
<path d="M2153 110 c9 -6 17 -20 17 -30 0 -10 -8 -24 -17 -30 -11 -7 -12 -10
-4 -7 24 6 37 35 25 54 -6 9 -17 18 -25 20 -8 3 -7 0 4 -7z"/>
<path d="M2201 80 l1 -45 8 35 c5 20 5 39 -1 45 -5 5 -9 -8 -8 -35z"/>
<path d="M1863 80 c0 -23 3 -28 9 -16 5 9 5 23 0 32 -6 12 -9 7 -9 -16z"/>
<path d="M2026 95 c-9 -26 -7 -32 5 -12 6 10 9 21 6 23 -2 3 -7 -2 -11 -11z"/>
<path d="M2116 94 c-3 -9 -2 -22 2 -31 6 -10 9 -5 9 16 0 35 -2 38 -11 15z"/>
<path d="M1682 65 c0 -16 2 -22 5 -12 2 9 2 23 0 30 -3 6 -5 -1 -5 -18z"/>
<path d="M1740 81 c0 -7 -4 -9 -10 -6 -12 8 -13 -5 -1 -23 6 -10 10 -8 14 9 4
13 4 25 2 28 -3 2 -5 -1 -5 -8z"/>
<path d="M1946 71 c-3 -5 2 -15 12 -22 15 -12 16 -12 5 2 -7 9 -10 19 -6 22 3
4 4 7 0 7 -3 0 -8 -4 -11 -9z"/>
</g>
</svg>
